<svg width="338" height="31" viewBox="0 0 338 31" fill="none" xmlns="http://www.w3.org/2000/svg">
<path d="M163.709 14.6312H166.141V16.2526H163.709V14.6312Z" fill="black"/>
<path d="M172.991 12.337C171.553 9.98421 169.592 7.99505 167.259 6.52438C166.182 5.8415 164.954 5.43275 163.682 5.33383C162.41 5.23491 161.133 5.44883 159.963 5.9569C158.94 6.43967 158.049 7.16431 157.368 8.06825C156.688 8.97219 156.237 10.0283 156.056 11.1453C155.991 11.5263 155.942 11.8911 155.894 12.2478C155.135 12.3708 154.444 12.7595 153.945 13.3446C153.446 13.9297 153.171 14.673 153.17 15.4419V20.4114C153.17 20.8414 153.341 21.2538 153.645 21.5578C153.949 21.8619 154.361 22.0327 154.791 22.0327V15.4419C154.791 15.0119 154.962 14.5995 155.266 14.2954C155.57 13.9913 155.982 13.8205 156.412 13.8205H171.597C173.159 13.8227 174.657 14.4443 175.762 15.5491C176.866 16.6539 177.488 18.1517 177.49 19.7142V20.306H175.869C175.526 19.4711 174.889 18.7914 174.077 18.3968C173.266 18.0021 172.337 17.9201 171.469 18.1663C170.601 18.4125 169.854 18.9697 169.37 19.7317C168.887 20.4936 168.701 21.4069 168.848 22.2972C168.995 23.1876 169.464 23.9927 170.167 24.5589C170.869 25.1251 171.756 25.4128 172.657 25.367C173.558 25.3213 174.411 24.9453 175.053 24.3109C175.695 23.6765 176.08 22.828 176.136 21.9273H177.49C177.92 21.9273 178.333 21.7565 178.637 21.4524C178.941 21.1484 179.112 20.736 179.112 20.306V19.7142C179.108 17.9647 178.495 16.271 177.378 14.9246C176.261 13.5781 174.71 12.6631 172.991 12.337ZM160.466 12.1992H157.166C157.166 11.9478 157.239 11.6884 157.288 11.3885C157.428 10.4979 157.794 9.65796 158.35 8.94849C158.906 8.23903 159.634 7.68361 160.466 7.33506V12.1992ZM162.087 12.1992V6.99458C163.601 6.79803 165.136 7.13022 166.433 7.93497C168.203 9.03764 169.731 10.4884 170.924 12.1992H162.087ZM172.464 23.8568C172.063 23.8568 171.671 23.7379 171.338 23.5152C171.005 23.2925 170.745 22.976 170.592 22.6056C170.438 22.2353 170.398 21.8278 170.476 21.4347C170.554 21.0415 170.747 20.6804 171.031 20.397C171.314 20.1135 171.675 19.9205 172.069 19.8423C172.462 19.7641 172.869 19.8042 173.24 19.9576C173.61 20.111 173.926 20.3708 174.149 20.7041C174.372 21.0374 174.491 21.4292 174.491 21.83C174.491 22.3676 174.277 22.8831 173.897 23.2631C173.517 23.6432 173.001 23.8568 172.464 23.8568Z" fill="black"/>
<path d="M163.036 20.306C162.693 19.4711 162.056 18.7914 161.244 18.3968C160.433 18.0021 159.504 17.9201 158.636 18.1663C157.768 18.4125 157.021 18.9698 156.537 19.7317C156.054 20.4936 155.868 21.4069 156.015 22.2972C156.161 23.1876 156.631 23.9927 157.334 24.5589C158.036 25.1251 158.923 25.4128 159.824 25.367C160.725 25.3213 161.578 24.9453 162.22 24.3109C162.862 23.6765 163.247 22.828 163.303 21.9273H167.6V21.7247C167.584 21.2464 167.638 20.7683 167.762 20.306H163.036ZM159.655 23.8568C159.254 23.8568 158.863 23.7379 158.529 23.5152C158.196 23.2925 157.936 22.976 157.783 22.6056C157.629 22.2353 157.589 21.8278 157.667 21.4347C157.746 21.0415 157.939 20.6804 158.222 20.397C158.506 20.1135 158.867 19.9205 159.26 19.8423C159.653 19.7641 160.06 19.8042 160.431 19.9576C160.801 20.111 161.118 20.3708 161.34 20.7041C161.563 21.0374 161.682 21.4292 161.682 21.83C161.682 22.3676 161.468 22.8831 161.088 23.2631C160.708 23.6432 160.193 23.8568 159.655 23.8568Z" fill="black"/>
<path d="M8.31749 15.0059C7.76084 15.0059 7.22699 14.7932 6.83338 14.4146C6.43977 14.036 6.21864 13.5226 6.21864 12.9872C6.21864 12.4519 6.43977 11.9384 6.83338 11.5598C7.22699 11.1813 7.76084 10.9686 8.31749 10.9686C8.87414 10.9686 9.408 11.1813 9.80161 11.5598C10.1952 11.9384 10.4163 12.4519 10.4163 12.9872C10.4163 13.2523 10.3621 13.5148 10.2566 13.7597C10.1511 14.0046 9.9965 14.2272 9.80161 14.4146C9.60671 14.6021 9.37533 14.7508 9.12069 14.8522C8.86605 14.9536 8.59312 15.0059 8.31749 15.0059ZM8.31749 7.33506C6.75887 7.33506 5.26409 7.93056 4.16198 8.99054C3.05987 10.0505 2.44071 11.4882 2.44071 12.9872C2.44071 17.2263 8.31749 23.4841 8.31749 23.4841C8.31749 23.4841 14.1943 17.2263 14.1943 12.9872C14.1943 11.4882 13.5751 10.0505 12.473 8.99054C11.3709 7.93056 9.87611 7.33506 8.31749 7.33506Z" fill="black"/>
<path d="M0.761627 23.5487V22.6766H5.79887V23.5487H0.761627Z" fill="black"/>
<path d="M8.652 23.5487V22.6766H13.6892V23.5487H8.652Z" fill="black"/>
<path d="M16.5424 23.5487V22.6766H21.5796V23.5487H16.5424Z" fill="black"/>
<path d="M24.4327 23.5487V22.6766H29.47V23.5487H24.4327Z" fill="black"/>
<path d="M32.3231 23.5487V22.6766H37.3604V23.5487H32.3231Z" fill="black"/>
<path d="M40.2135 23.5487V22.6766H45.2507V23.5487H40.2135Z" fill="black"/>
<path d="M48.1039 23.5487V22.6766H53.1411V23.5487H48.1039Z" fill="black"/>
<path d="M55.9942 23.5487V22.6766H61.0315V23.5487H55.9942Z" fill="black"/>
<path d="M63.8846 23.5487V22.6766H68.9218V23.5487H63.8846Z" fill="black"/>
<path d="M71.775 23.5487V22.6766H76.8122V23.5487H71.775Z" fill="black"/>
<path d="M79.6653 23.5487V22.6766H84.7026V23.5487H79.6653Z" fill="black"/>
<path d="M87.5557 23.5487V22.6766H92.593V23.5487H87.5557Z" fill="black"/>
<path d="M95.4461 23.5487V22.6766H100.483V23.5487H95.4461Z" fill="black"/>
<path d="M103.336 23.5487V22.6766H108.374V23.5487H103.336Z" fill="black"/>
<path d="M111.227 23.5487V22.6766H116.264V23.5487H111.227Z" fill="black"/>
<path d="M119.117 23.5487V22.6766H124.154V23.5487H119.117Z" fill="black"/>
<path d="M127.008 23.5487V22.6766H132.045V23.5487H127.008Z" fill="black"/>
<path d="M134.898 23.5487V22.6766H139.935V23.5487H134.898Z" fill="black"/>
<path d="M142.788 23.5487V22.6766H147.826V23.5487H142.788Z" fill="black"/>
<path d="M150.679 23.5487V22.6766H155.716V23.5487H150.679Z" fill="black"/>
<path d="M158.569 23.5487V22.6766H163.606V23.5487H158.569Z" fill="black"/>
<path d="M166.459 23.5487V22.6766H171.497V23.5487H166.459Z" fill="black"/>
<path d="M174.35 23.5487V22.6766H179.387V23.5487H174.35Z" fill="black"/>
<path d="M182.24 23.5487V22.6766H187.277V23.5487H182.24Z" fill="black"/>
<path d="M190.131 23.5487V22.6766H195.168V23.5487H190.131Z" fill="black"/>
<path d="M198.021 23.5487V22.6766H203.058V23.5487H198.021Z" fill="black"/>
<path d="M205.911 23.5487V22.6766H210.949V23.5487H205.911Z" fill="black"/>
<path d="M213.802 23.5487V22.6766H218.839V23.5487H213.802Z" fill="black"/>
<path d="M221.692 23.5487V22.6766H226.729V23.5487H221.692Z" fill="black"/>
<path d="M229.582 23.5487V22.6766H234.62V23.5487H229.582Z" fill="black"/>
<path d="M237.473 23.5487V22.6766H242.51V23.5487H237.473Z" fill="black"/>
<path d="M245.363 23.5487V22.6766H250.4V23.5487H245.363Z" fill="black"/>
<path d="M253.254 23.5487V22.6766H258.291V23.5487H253.254Z" fill="black"/>
<path d="M261.144 23.5487V22.6766H266.181V23.5487H261.144Z" fill="black"/>
<path d="M269.034 23.5487V22.6766H274.071V23.5487H269.034Z" fill="black"/>
<path d="M276.925 23.5487V22.6766H281.962V23.5487H276.925Z" fill="black"/>
<path d="M284.815 23.5487V22.6766H289.852V23.5487H284.815Z" fill="black"/>
<path d="M292.705 23.5487V22.6766H297.743V23.5487H292.705Z" fill="black"/>
<path d="M300.596 23.5487V22.6766H305.633V23.5487H300.596Z" fill="black"/>
<path d="M308.486 23.5487V22.6766H313.523V23.5487H308.486Z" fill="black"/>
<path d="M316.376 23.5487V22.6766H321.414V23.5487H316.376Z" fill="black"/>
<path d="M324.267 23.5487V22.6766H329.304V23.5487H324.267Z" fill="black"/>
<path d="M332.157 23.5487V22.6766H337.194V23.5487H332.157Z" fill="black"/>
<path d="M329.862 15.0059C329.305 15.0059 328.771 14.7932 328.378 14.4146C327.984 14.036 327.763 13.5226 327.763 12.9872C327.763 12.4519 327.984 11.9384 328.378 11.5598C328.771 11.1813 329.305 10.9686 329.862 10.9686C330.418 10.9686 330.952 11.1813 331.346 11.5598C331.739 11.9384 331.96 12.4519 331.96 12.9872C331.96 13.2523 331.906 13.5148 331.801 13.7597C331.695 14.0046 331.541 14.2272 331.346 14.4146C331.151 14.6021 330.919 14.7508 330.665 14.8522C330.41 14.9536 330.137 15.0059 329.862 15.0059ZM329.862 7.33506C328.303 7.33506 326.808 7.93056 325.706 8.99054C324.604 10.0505 323.985 11.4882 323.985 12.9872C323.985 17.2263 329.862 23.4841 329.862 23.4841C329.862 23.4841 335.738 17.2263 335.738 12.9872C335.738 11.4882 335.119 10.0505 334.017 8.99054C332.915 7.93056 331.42 7.33506 329.862 7.33506Z" fill="black"/>
</svg>
